<svg width="42" height="41" viewBox="0 0 42 41" fill="none" xmlns="http://www.w3.org/2000/svg">
<path d="M30.3065 0.130677C32.438 0.225715 33.9115 0.529496 35.273 1.04202C36.5639 1.5101 37.7326 2.24831 38.696 3.20413C39.6816 4.13836 40.4428 5.27175 40.9255 6.52366C41.454 7.84571 41.7673 9.27297 41.8652 11.34C41.986 13.9027 42 14.8055 42 20.3652C42 25.9249 41.986 26.8278 41.8652 29.3904C41.7673 31.4575 41.454 32.8865 40.9255 34.2085C40.4426 35.4598 39.6814 36.5926 38.696 37.5263C37.7327 38.4822 36.564 39.2204 35.273 39.6884C33.9098 40.201 32.438 40.5048 30.3065 40.5998C27.664 40.7169 26.7348 40.7305 21 40.7305C15.2653 40.7305 14.3343 40.7169 11.6935 40.5998C9.562 40.5048 8.0885 40.201 6.72525 39.6884C5.43491 39.2202 4.26681 38.482 3.304 37.5263C2.31838 36.5921 1.55717 35.4587 1.0745 34.2068C0.546 32.8848 0.23275 31.4575 0.13475 29.3904C0.014 26.8312 0 25.9283 0 20.3652C0 14.8038 0.014 13.8993 0.13475 11.34C0.23275 9.27297 0.546 7.84401 1.0745 6.52366C1.55717 5.27175 2.31838 4.13836 3.304 3.20413C4.26685 2.24852 5.43494 1.51032 6.72525 1.04202C8.09025 0.529496 9.562 0.225715 11.6935 0.130677C14.3325 0.0135768 15.2635 0 21 0C26.7348 0 27.6675 0.0135768 30.3065 0.130677ZM21 4.52617C15.33 4.52617 14.462 4.53805 11.9052 4.65176C10.283 4.72304 9.31 4.9233 8.41575 5.26102C7.6545 5.54953 7.16975 5.855 6.60275 6.40317C6.03575 6.95303 5.72075 7.42313 5.425 8.16137C5.0785 9.02689 4.87025 9.97218 4.79675 11.5454C4.6795 14.0249 4.66725 14.8666 4.66725 20.3652C4.66725 25.8638 4.6795 26.7056 4.79675 29.1851C4.87025 30.7583 5.07675 31.7019 5.425 32.5674C5.7225 33.3073 6.0375 33.7774 6.60275 34.3273C7.16975 34.8772 7.6545 35.1826 8.41575 35.4695C9.30825 35.8055 10.283 36.0074 11.9052 36.0787C14.4637 36.1924 15.3317 36.2043 21 36.2043C26.67 36.2043 27.5363 36.1924 30.0948 36.0787C31.717 36.0074 32.69 35.8072 33.5843 35.4695C34.3455 35.1809 34.8302 34.8755 35.3972 34.3273C35.9642 33.7774 36.2793 33.3073 36.575 32.5691C36.9215 31.7036 37.1298 30.7583 37.2033 29.1851C37.3205 26.7039 37.3327 25.8622 37.3327 20.3652C37.3327 14.8683 37.3205 14.0266 37.2033 11.5454C37.1298 9.97218 36.9232 9.02859 36.575 8.16306C36.3275 7.49624 35.9245 6.89393 35.3972 6.40317C34.8912 5.89185 34.2701 5.50095 33.5825 5.26102C32.69 4.92499 31.7152 4.72304 30.093 4.65176C27.5362 4.53805 26.6682 4.52617 20.9982 4.52617H21ZM21 30.9246C18.1122 30.9246 15.3427 29.8121 13.3007 27.8318C11.2587 25.8516 10.1115 23.1658 10.1115 20.3652C10.1115 17.5647 11.2587 14.8789 13.3007 12.8986C15.3427 10.9184 18.1122 9.80586 21 9.80586C23.8878 9.80586 26.6573 10.9184 28.6993 12.8986C30.7413 14.8789 31.8885 17.5647 31.8885 20.3652C31.8885 23.1658 30.7413 25.8516 28.6993 27.8318C26.6573 29.8121 23.8878 30.9246 21 30.9246ZM21 26.4001C22.6504 26.4001 24.2333 25.7643 25.4003 24.6326C26.5674 23.5008 27.223 21.9658 27.223 20.3652C27.223 18.7647 26.5674 17.2297 25.4003 16.0979C24.2333 14.9662 22.6504 14.3303 21 14.3303C19.3496 14.3303 17.7667 14.9662 16.5997 16.0979C15.4326 17.2297 14.777 18.7647 14.777 20.3652C14.777 21.9658 15.4326 23.5008 16.5997 24.6326C17.7667 25.7643 19.3496 26.4001 21 26.4001ZM31.8885 12.0681C31.2696 12.0681 30.676 11.8297 30.2384 11.4053C29.8007 10.9808 29.5549 10.4052 29.5549 9.80501C29.5549 9.2048 29.8007 8.62918 30.2384 8.20477C30.676 7.78036 31.2696 7.54192 31.8885 7.54192C32.5074 7.54192 33.101 7.78036 33.5386 8.20477C33.9763 8.62918 34.2221 9.2048 34.2221 9.80501C34.2221 10.4052 33.9763 10.9808 33.5386 11.4053C33.101 11.8297 32.5074 12.0681 31.8885 12.0681Z" fill="url(#paint0_linear)"/>
<defs>
<linearGradient id="paint0_linear" x1="5" y1="4.84887" x2="27.9325" y2="44.261" gradientUnits="userSpaceOnUse">
<stop stop-color="#FAC618"/>
<stop offset="0.336458" stop-color="#E73D57"/>
<stop offset="0.607292" stop-color="#C22C8D"/>
<stop offset="1" stop-color="#4B3ADE"/>
</linearGradient>
</defs>
</svg>
