<svg width="48" height="50" viewBox="0 0 48 50" fill="none" xmlns="http://www.w3.org/2000/svg">
<g clip-path="url(#clip0)">
<path d="M12.6868 42.823L13.4715 43.227C16.7415 45.2469 20.4036 46.1896 24.0658 46.1896C35.5755 46.1896 44.9925 36.4938 44.9925 24.6434C44.9925 18.9876 42.7689 13.4664 38.8453 9.42645C34.9215 5.38649 29.6897 3.0973 24.0658 3.0973C12.5561 3.0973 3.13894 12.7931 3.26981 24.7782C3.26981 28.818 4.44694 32.7234 6.40875 36.0898L6.93187 36.8979L4.83937 44.843L12.6868 42.823Z" fill="#00E676"/>
<path d="M41.0687 7.27181C36.6217 2.55869 30.4746 0 24.1965 0C10.8559 0 0.130875 11.177 0.261562 24.778C0.261562 29.0873 1.43869 33.262 3.40069 37.0324L0 49.8255L12.6868 46.4589C16.2182 48.479 20.1418 49.4216 24.0658 49.4216C37.2757 49.4216 48.0007 38.2444 48.0007 24.6436C48.0007 18.045 45.5156 11.8504 41.0689 7.27181H41.0687ZM24.1965 45.2471C20.6651 45.2471 17.1337 44.3046 14.1255 42.4193L13.3408 42.0152L5.75494 44.0351L7.71675 36.3595L7.19363 35.5513C1.43869 25.9903 4.18537 13.3317 13.6024 7.40637C23.0194 1.48127 35.1831 4.30927 40.938 14.005C46.6927 23.7008 43.9461 36.2245 34.5293 42.1498C31.5208 44.1697 27.8588 45.2469 24.1965 45.2469V45.2471ZM35.7062 30.2996L34.2675 29.6263C34.2675 29.6263 32.175 28.6836 30.867 28.0102C30.7361 28.0102 30.6054 27.8755 30.4746 27.8755C30.0821 27.8755 29.8206 28.0102 29.559 28.145C29.559 28.145 29.4283 28.2795 27.5972 30.4342C27.4663 30.7035 27.2048 30.8382 26.9432 30.8382H26.8123C26.6816 30.8382 26.4201 30.7035 26.2892 30.5689L25.6352 30.2996C24.1965 29.6263 22.8887 28.8181 21.8422 27.7409C21.5807 27.4716 21.1882 27.2023 20.9267 26.933C20.0111 25.9903 19.0956 24.9129 18.4417 23.701L18.3109 23.4317C18.1802 23.2969 18.1802 23.1624 18.0493 22.893C18.0493 22.6237 18.0493 22.3544 18.1802 22.2197C18.1802 22.2197 18.7033 21.5463 19.0956 21.1425C19.3573 20.873 19.488 20.4691 19.7496 20.1998C20.0111 19.7958 20.142 19.2571 20.0111 18.8531C19.8804 18.1797 18.3109 14.5438 17.9186 13.7359C17.6569 13.3319 17.3955 13.1973 17.0031 13.0625H15.5644C15.3026 13.0625 15.0412 13.1973 14.7795 13.1973L14.6486 13.3319C14.3871 13.4666 14.1255 13.7359 13.8639 13.8705C13.6024 14.14 13.4715 14.4091 13.2099 14.6786C12.2944 15.8905 11.7712 17.3718 11.7712 18.8531C11.7712 19.9303 12.0328 21.0077 12.4252 21.9504L12.5561 22.3544C13.7333 24.9129 15.3026 27.2023 17.3955 29.2222L17.9186 29.7608C18.3109 30.1649 18.7033 30.4342 18.9649 30.838C21.7116 33.2622 24.8505 35.0127 28.3819 35.9554C28.7743 36.09 29.2974 36.09 29.6899 36.2247H30.9977C31.6517 36.2247 32.4364 35.9554 32.9597 35.6861C33.3519 35.4168 33.6135 35.4168 33.8751 35.1475L34.1368 34.878C34.3984 34.6087 34.6599 34.4741 34.9215 34.2048C35.1831 33.9355 35.4446 33.6662 35.5755 33.3967C35.8371 32.8581 35.9678 32.1847 36.0986 31.5116V30.5689C36.0986 30.5689 35.9678 30.4342 35.7062 30.2996Z" fill="white"/>
</g>
<defs>
<clipPath id="clip0">
<rect width="48" height="50" fill="white"/>
</clipPath>
</defs>
</svg>
