<?xml version="1.0" encoding="utf-8"?>
<!-- Generator: Adobe Illustrator 25.1.0, SVG Export Plug-In . SVG Version: 6.00 Build 0)  -->
<svg version="1.1" id="Camada_1" xmlns="http://www.w3.org/2000/svg" xmlns:xlink="http://www.w3.org/1999/xlink" x="0px" y="0px"
	 viewBox="0 0 350.81 213.42" style="enable-background:new 0 0 350.81 213.42;" xml:space="preserve">
<style type="text/css">
	.st0{fill:#FFFFFF;}
	.st1{fill:#E94F29;}
</style>
<g>
	<g>
		<path class="st0" d="M96.01,178.12h4.79v1.16H97.2v2.59h2.61v1.06H97.2v2.64h3.59v1.16h-4.79V178.12z"/>
		<path class="st0" d="M104.18,183.99h1.18c0,1.29,0.68,1.75,1.71,1.75c0.95,0,1.66-0.45,1.66-1.36s-0.83-1.17-1.77-1.44
			c-1.23-0.37-2.66-0.73-2.66-2.55c0-1.55,1-2.43,2.71-2.43c1.72,0,2.82,0.94,2.82,2.8h-1.18c0-1.18-0.62-1.69-1.64-1.69
			c-0.96,0-1.53,0.46-1.53,1.32c0,0.96,0.92,1.22,1.92,1.5c1.21,0.34,2.53,0.73,2.53,2.47c0,1.61-1.1,2.51-2.86,2.51
			C105.31,186.88,104.18,185.92,104.18,183.99z"/>
		<path class="st0" d="M113.87,178.12h2.53c1.69,0,2.94,1.07,2.94,3.03v0.33c0,1.95-1.26,2.98-2.94,2.98h-1.33v2.27h-1.2V178.12z
			 M116.34,183.31c1.03,0,1.82-0.55,1.82-1.84v-0.32c0-1.49-0.88-1.87-1.82-1.87h-1.27v4.03H116.34z"/>
		<path class="st0" d="M123.19,178.12h4.79v1.16h-3.59v2.59H127v1.06h-2.61v2.64h3.59v1.16h-4.79V178.12z"/>
		<path class="st0" d="M131.46,183.86v-2.92c0-1.76,1.17-2.98,2.87-2.98c1.76,0,2.88,1.31,2.88,3.1v0.07h-1.2v-0.09
			c0-1.01-0.54-1.93-1.69-1.93c-0.84,0-1.67,0.54-1.67,1.78v2.99c0,1.18,0.73,1.79,1.67,1.79c1.26,0,1.69-1.06,1.69-2v-0.09h1.2
			v0.09c0,1.83-1.09,3.16-2.88,3.16C132.63,186.85,131.46,185.62,131.46,183.86z"/>
		<path class="st0" d="M141.12,178.12h1.2v8.61h-1.2V178.12z"/>
		<path class="st0" d="M148.6,178.12h1.34l2.75,8.61h-1.26l-0.59-1.94h-3.2l-0.6,1.94h-1.25L148.6,178.12z M150.55,183.75
			l-1.28-4.31l-1.32,4.31H150.55z"/>
		<path class="st0" d="M156.18,178.12h1.2v7.45h3.31v1.16h-4.5V178.12z"/>
		<path class="st0" d="M164.35,178.12h1.2v8.61h-1.2V178.12z"/>
		<path class="st0" d="M172.77,179.28h-3.27v-1.16h5.08l-3.57,7.45h3.46v1.16h-5.25L172.77,179.28z"/>
		<path class="st0" d="M180.43,178.12h1.34l2.75,8.61h-1.26l-0.59-1.94h-3.2l-0.6,1.94h-1.25L180.43,178.12z M182.39,183.75
			l-1.28-4.31l-1.32,4.31H182.39z"/>
		<path class="st0" d="M188.02,178.12h2.76c1.7,0,2.88,1.09,2.88,3.19v2.22c0,2.09-1.18,3.2-2.88,3.2h-2.76V178.12z M190.64,185.58
			c1.04,0,1.82-0.54,1.82-2.33v-1.67c0-1.77-0.77-2.3-1.82-2.3h-1.43v6.3H190.64z"/>
		<path class="st0" d="M199.46,178.12h1.34l2.75,8.61h-1.26l-0.59-1.94h-3.2l-0.6,1.94h-1.25L199.46,178.12z M201.41,183.75
			l-1.28-4.31l-1.32,4.31H201.41z"/>
		<path class="st0" d="M214.19,178.12h1.34l2.75,8.61h-1.26l-0.59-1.94h-3.2l-0.6,1.94h-1.25L214.19,178.12z M216.14,183.75
			l-1.28-4.31l-1.32,4.31H216.14z"/>
		<path class="st0" d="M221.77,178.12h2.53c1.69,0,2.94,1.07,2.94,3.03v0.33c0,1.95-1.26,2.98-2.94,2.98h-1.33v2.27h-1.2V178.12z
			 M224.24,183.31c1.03,0,1.82-0.55,1.82-1.84v-0.32c0-1.49-0.88-1.87-1.82-1.87h-1.27v4.03H224.24z"/>
		<path class="st0" d="M231.09,178.12h2.53c1.69,0,2.94,1.07,2.94,3.03v0.33c0,1.95-1.26,2.98-2.94,2.98h-1.33v2.27h-1.2V178.12z
			 M233.55,183.31c1.03,0,1.82-0.55,1.82-1.84v-0.32c0-1.49-0.88-1.87-1.82-1.87h-1.27v4.03H233.55z"/>
		<path class="st0" d="M240.4,178.12h1.2v7.45h3.31v1.16h-4.51V178.12z"/>
		<path class="st0" d="M248.57,178.12h4.79v1.16h-3.59v2.59h2.61v1.06h-2.61v2.64h3.59v1.16h-4.79V178.12z"/>
	</g>
	<g>
		<path class="st0" d="M126.06,53.85h8.1c5.21,0,8.77,2.32,8.77,7.2v0.37c0,2.85-1.24,4.69-3.34,5.59c2.25,0.97,3.6,2.77,3.6,5.7
			v0.34c0,4.87-3.56,7.23-8.77,7.23h-8.36V53.85z M134.42,65.02c1.69,0,3.37-0.56,3.37-3v-0.41c0-2.29-1.87-2.81-3.82-2.81h-2.74
			v6.22H134.42z M134.23,75.37c1.99,0,3.82-0.49,3.82-3.07v-0.41c0-2.25-1.84-2.85-3.64-2.85h-3.19v6.34H134.23z"/>
		<path class="st0" d="M154.74,53.85h14.84v4.99h-9.67v6h7.16v4.5h-7.16v6h9.67v4.95h-14.84V53.85z"/>
		<path class="st0" d="M179.36,71.58h5.17c0,3.07,1.58,4.35,3.86,4.35c2.17,0,3.79-1.01,3.79-3.19c0-2.21-2.4-2.92-5.14-3.79
			c-3.45-1.16-7.35-2.59-7.35-7.84c0-4.84,3.45-7.76,8.7-7.76c5.1,0,8.62,3.41,8.62,8.85h-5.1c0-2.81-1.39-4.12-3.6-4.12
			c-2.21,0-3.45,1.05-3.45,3.04c0,2.25,2.25,2.96,4.87,3.79c3.49,1.09,7.61,2.36,7.61,7.8c0,5.02-3.6,8.02-8.96,8.02
			C183.04,80.73,179.36,77.24,179.36,71.58z"/>
		<path class="st0" d="M212.35,58.84h-5.51v-4.99h16.19v4.99h-5.51v21.44h-5.17V58.84z"/>
	</g>
	<path class="st0" d="M48.87,89.14H31.6v71.2h8.48v-19.29h8.79c12.62,0,19.49-8.18,19.49-23.53v-4.54
		C68.37,97.73,61.5,89.14,48.87,89.14z M59.98,118.33c0,10.5-4.34,14.54-11.82,14.54h-8.08V97.43h8.08
		c7.27,0,11.82,3.43,11.82,14.65V118.33z"/>
	<polygon class="st0" points="250.74,139.95 228.41,89.14 220.54,89.14 220.54,160.35 229.02,160.35 229.02,110.05 251.34,160.35 
		259.22,160.35 259.22,89.14 250.74,89.14 	"/>
	<path class="st0" d="M186.52,89.35h-23.29c-5.62,0-10.18,4.08-10.18,9.1v8.91c-0.21,0-0.39,0.16-0.39,0.35v5.27
		c0,0.19,0.17,0.35,0.39,0.35v2.23c-0.21,0-0.39,0.16-0.39,0.35v5.27c0,0.19,0.17,0.35,0.39,0.35v29.52c0,5.02,4.57,9.1,10.18,9.1
		h23.29c5.62,0,10.19-4.08,10.19-9.1V98.45C196.7,93.44,192.14,89.35,186.52,89.35z M188.14,151.07c0,1.11-0.97,2.02-2.16,2.02
		h-22.23c-1.19,0-2.15-0.91-2.15-2.02V98.45c0-1.11,0.97-2.02,2.15-2.02h3.2c0.2,0.04,0.31,0.18,0.31,0.59
		c0,0.58,0.38,1.55,1.75,1.55h11.65c1.37,0,1.75-0.97,1.75-1.55c0-0.41,0.11-0.54,0.31-0.59h3.28c1.19,0,2.16,0.91,2.16,2.02V151.07
		z"/>
	<polygon class="st0" points="122.05,89.14 122.05,113.63 122.05,120.55 122.05,128.13 122.05,139.76 122.05,160.35 130.54,160.35 
		130.54,89.14 	"/>
	<polygon class="st0" points="101.75,102.89 101.75,89.14 93.27,89.14 93.27,120.31 101.75,120.31 101.75,106.21 	"/>
	<path class="st1" d="M122.05,124.46H84.37v0c0-4.58,3.72-8.3,8.3-8.3h29.38V124.46z"/>
	<path class="st0" d="M93.27,130.82v29.53h8.48v-14.36v-3.38v-17C98.72,125.61,93.27,127.37,93.27,130.82z"/>
	<g>
		<path class="st0" d="M317.76,160.35v-8.28h-23.74V130.7c-0.11-3.37-5.42-5.1-8.38-5.1v34.75H317.76z"/>
		<polygon class="st0" points="317.76,89.14 285.65,89.14 285.65,120.32 294.03,120.32 294.03,97.43 317.76,97.43 		"/>
	</g>
	<path class="st1" d="M308.63,116.17h-22.99v8.28h31.27v0v0C316.91,119.87,313.2,116.17,308.63,116.17z"/>
</g>
</svg>
